<svg xmlns="http://www.w3.org/2000/svg" xmlns:xlink="http://www.w3.org/1999/xlink" preserveAspectRatio="xMidYMid" width="16" height="16" viewBox="0 0 16 16">
  <defs>
    <style>
      .cls-1 {
        fill: #1a1a1a;
        fill-rule: evenodd;
      }
    </style>
  </defs>
  <path d="M16.002,6.688 C16.007,6.338 15.921,5.993 15.752,5.687 L12.931,0.750 C12.662,0.285 12.165,-0.001 11.628,0.000 L4.375,0.000 C3.838,-0.001 3.341,0.285 3.073,0.750 L0.247,5.697 C0.077,6.004 -0.009,6.348 -0.003,6.697 L-0.003,15.499 C-0.003,15.775 0.221,15.999 0.497,15.999 L2.497,15.999 C2.774,15.999 2.997,15.775 2.997,15.499 L2.997,13.499 L13.001,13.499 L13.001,15.499 C13.001,15.775 13.225,15.999 13.501,15.999 L15.501,15.999 C15.778,15.999 16.002,15.775 16.002,15.499 L16.002,6.688 ZM4.953,2.500 L11.045,2.500 L13.046,6.000 L2.962,6.000 L4.953,2.500 ZM3.748,11.000 C3.057,11.000 2.497,10.440 2.497,9.750 C2.497,9.060 3.057,8.500 3.748,8.500 C4.438,8.500 4.998,9.060 4.998,9.750 C4.998,10.440 4.438,11.000 3.748,11.000 ZM12.250,11.000 C11.560,11.000 11.000,10.440 11.000,9.750 C11.000,9.060 11.560,8.500 12.250,8.500 C12.941,8.500 13.501,9.060 13.501,9.750 C13.501,10.440 12.941,11.000 12.250,11.000 Z" class="cls-1"/>
</svg>
