<svg xmlns="http://www.w3.org/2000/svg" xmlns:xlink="http://www.w3.org/1999/xlink" preserveAspectRatio="xMidYMid" width="30" height="15" viewBox="0 0 30 15">
  <defs>
    <style>
      .cls-1 {
        fill: #1a1a1a;
        fill-rule: evenodd;
      }
    </style>
  </defs>
  <path d="M28.080,9.385 C27.020,9.385 26.161,8.546 26.161,7.513 C26.161,6.479 27.020,5.640 28.080,5.640 C29.141,5.640 30.000,6.479 30.000,7.513 C30.000,8.546 29.141,9.385 28.080,9.385 ZM16.824,14.562 C16.521,14.857 16.124,15.005 15.727,15.005 C15.329,15.005 14.932,14.857 14.628,14.562 C14.022,13.970 14.022,13.011 14.629,12.420 L18.124,9.012 L8.133,9.012 C7.275,9.012 6.581,8.334 6.581,7.498 C6.581,6.662 7.275,5.983 8.133,5.983 L18.122,5.983 L14.628,2.578 C14.022,1.987 14.021,1.028 14.628,0.438 C15.233,-0.156 16.217,-0.154 16.824,0.437 L22.971,6.427 C23.262,6.711 23.426,7.096 23.426,7.498 C23.426,7.899 23.262,8.284 22.971,8.569 L16.824,14.562 ZM1.925,9.385 C0.865,9.385 0.005,8.546 0.005,7.513 C0.005,6.479 0.865,5.640 1.925,5.640 C2.985,5.640 3.845,6.479 3.845,7.513 C3.845,8.546 2.985,9.385 1.925,9.385 Z" class="cls-1"/>
</svg>
