<svg xmlns="http://www.w3.org/2000/svg" xmlns:xlink="http://www.w3.org/1999/xlink" preserveAspectRatio="xMidYMid" width="14" height="22" viewBox="0 0 14 22">
  <defs>
    <style>
      .cls-1 {
        fill: #1a1a1a;
        fill-rule: evenodd;
      }
    </style>
  </defs>
  <path d="M6.971,-0.003 C3.062,-0.003 -0.000,3.113 -0.000,7.090 C-0.000,9.637 0.954,10.993 2.855,13.697 L3.264,14.278 C5.787,18.057 6.312,21.293 6.322,21.360 C6.406,21.742 6.690,21.999 7.031,21.999 C7.371,21.999 7.656,21.742 7.747,21.305 C7.751,21.273 8.150,18.069 10.735,14.280 C10.870,14.081 11.012,13.873 11.159,13.660 C12.426,11.819 14.002,9.528 14.003,7.090 C14.003,3.179 10.849,-0.003 6.971,-0.003 ZM7.016,10.436 C5.390,10.436 4.016,8.950 4.016,7.192 C4.016,5.477 5.362,4.083 7.016,4.083 C8.776,4.083 10.104,5.419 10.103,7.192 C10.103,8.979 8.718,10.434 7.016,10.436 Z" class="cls-1"/>
</svg>
