<?xml version="1.0" encoding="utf-8"?>
<!-- Generator: Adobe Illustrator 21.0.2, SVG Export Plug-In . SVG Version: 6.00 Build 0)  -->
<svg version="1.1" id="Capa_1" xmlns="http://www.w3.org/2000/svg" xmlns:xlink="http://www.w3.org/1999/xlink" x="0px" y="0px"
	 viewBox="0 0 54.8 54.8" style="enable-background:new 0 0 54.8 54.8;" xml:space="preserve">
<style type="text/css">
	.st0{fill:#FFFFFF;}
</style>
<path d="M40.9,5.6C37.3,2,32.5,0,27.4,0c-5.1,0-9.9,2-13.6,5.6c-6.7,6.7-7.5,19.3-1.8,27l15.4,22.2l15.3-22.2
	C48.5,24.9,47.6,12.3,40.9,5.6z M41.1,31.4L27.4,51.2L13.6,31.4C8.4,24.5,9.2,13.1,15.2,7c3.2-3.2,7.6-5,12.1-5s8.9,1.8,12.1,5
	C45.6,13.1,46.3,24.5,41.1,31.4z"/>
<polygon points="27.4,52.6 23.6,47.6 16.8,37.7 10.3,27.8 9.3,20.3 11,11.3 14.8,6.6 17.6,3.5 23.1,1.2 28.5,1.2 35.5,2.9 40.4,7 
	44.8,12.6 45.6,20.4 45,25.5 43.4,30.4 40.1,34.7 36.3,40 31.3,47.6 "/>
<g>
	<g>
		<path class="st0" d="M38.9,22.9c-1.2,0-2.4,0-3.5,0c-0.1,0-0.3-0.2-0.3-0.4c-0.1-0.5-0.2-1.1-0.2-1.6c0-0.3-0.2-0.4-0.5-0.4
			c-1.2,0-2.3,0-3.5,0c-0.3,0-0.5,0.1-0.5,0.5c0,0.5-0.1,1.1-0.2,1.6c0,0.2-0.2,0.4-0.3,0.4c-1.2,0-2.3,0-3.6,0
			c0.9-4.9,1.7-9.7,2.6-14.6c1.1,0,2.2,0,3.4,0c-0.4,3-0.9,5.9-1.3,8.9c1.1,0,2.2,0,3.3,0c-0.4-3-0.9-5.9-1.3-8.9c1.1,0,2.2,0,3.4,0
			C37.2,13.1,38,18,38.9,22.9z"/>
		<path class="st0" d="M19.6,27.8c2.2,0,4.3,0,6.5,0c0,1.1,0,2.1,0,3.2c-3.3,0-6.5,0-9.9,0c0-7.6,0-15.1,0-22.7c1.1,0,2.2,0,3.4,0
			C19.6,14.8,19.6,21.3,19.6,27.8z"/>
		<path class="st0" d="M30.3,26.2c1.4,0,2.9,0,4.3,0c0.1,0,0.3,0.2,0.3,0.3c0.3,1.5,0.5,3,0.8,4.6c-2.1,0-4.1,0-6.3,0
			C29.7,29.4,30,27.8,30.3,26.2z"/>
	</g>
</g>
</svg>
