<svg xmlns="http://www.w3.org/2000/svg" xmlns:xlink="http://www.w3.org/1999/xlink" preserveAspectRatio="xMidYMid" width="25" height="18" viewBox="0 0 25 18">
  <defs>
    <style>
      .cls-1 {
        fill: #1a1a1a;
        fill-rule: evenodd;
      }
    </style>
  </defs>
  <path d="M19.704,6.877 C19.427,6.877 19.157,6.906 18.892,6.949 L21.197,2.617 L19.426,1.575 L18.589,3.148 L9.978,3.148 L11.193,0.009 L5.572,0.009 L5.572,2.144 L8.174,2.144 L6.301,6.983 C5.972,6.915 5.632,6.878 5.285,6.878 C2.367,6.878 -0.006,9.373 -0.006,12.440 C-0.006,15.507 2.367,18.002 5.285,18.002 C8.202,18.002 10.575,15.507 10.575,12.440 C10.575,10.497 9.621,8.785 8.180,7.791 L8.907,5.912 L14.854,10.223 C14.571,10.902 14.412,11.652 14.412,12.440 C14.412,15.507 16.786,18.002 19.703,18.002 C22.620,18.002 24.992,15.507 24.992,12.440 C24.992,9.373 22.620,6.877 19.704,6.877 ZM8.546,12.440 C8.546,14.330 7.083,15.868 5.285,15.868 C3.487,15.868 2.024,14.330 2.024,12.440 C2.024,10.550 3.487,9.013 5.285,9.013 C5.360,9.013 5.432,9.030 5.506,9.036 L4.344,12.038 L6.225,12.843 L7.386,9.842 C8.090,10.470 8.546,11.395 8.546,12.440 ZM15.829,8.335 L11.616,5.283 L17.453,5.283 L15.829,8.335 ZM19.704,15.868 C17.906,15.868 16.444,14.330 16.444,12.440 C16.444,12.104 16.504,11.787 16.589,11.480 L19.127,13.319 L20.280,11.561 L17.741,9.720 C18.289,9.282 18.964,9.012 19.704,9.012 C21.501,9.012 22.963,10.550 22.963,12.439 C22.963,14.329 21.501,15.868 19.704,15.868 Z" class="cls-1"/>
</svg>
