<?xml version="1.0" standalone="no"?>
<!DOCTYPE svg PUBLIC "-//W3C//DTD SVG 20010904//EN"
 "http://www.w3.org/TR/2001/REC-SVG-20010904/DTD/svg10.dtd">
<svg version="1.0" xmlns="http://www.w3.org/2000/svg"
 width="300.000000pt" height="300.000000pt" viewBox="0 0 300.000000 300.000000"
 preserveAspectRatio="xMidYMid meet">
<metadata>
Created by potrace 1.11, written by Peter Selinger 2001-2013
</metadata>
<g transform="translate(0.000000,300.000000) scale(0.100000,-0.100000)"
fill="#000000" stroke="none">
<path d="M440 1500 l0 -1060 465 0 465 0 0 150 0 150 -305 0 -305 0 0 910 0
910 -160 0 -160 0 0 -1060z"/>
<path d="M1616 2528 c-3 -18 -55 -314 -116 -658 -60 -344 -112 -635 -115 -647
l-5 -23 178 0 179 0 12 88 c22 149 -7 132 221 132 181 0 199 -2 204 -17 2 -10
10 -60 17 -110 l12 -93 179 0 180 0 -6 28 c-6 26 -236 1324 -236 1329 0 2 -72
3 -160 3 l-159 0 4 -27 c11 -58 115 -774 115 -788 0 -13 -23 -15 -150 -15
-113 0 -150 3 -150 13 0 12 104 721 115 785 l6 32 -159 0 -160 0 -6 -32z"/>
<path d="M1755 878 c-4 -14 -75 -419 -75 -431 0 -9 580 -9 580 1 0 4 -17 105
-37 225 l-38 217 -213 0 c-161 0 -214 -3 -217 -12z"/>
</g>
</svg>
