<svg id="Layer_1" data-name="Layer 1" xmlns="http://www.w3.org/2000/svg" viewBox="0 0 388.55 169.53"><title>Anticipations_Principal_Logo1_Fondation_Noir_RGB</title><g id="_Groupe_" data-name="&lt;Groupe&gt;"><path id="_Tracé_transparent_" data-name="&lt;Tracé transparent&gt;" d="M81.26,104.8v8.09H57V56.2h8.43v48.6Z" transform="translate(-55.3 -56.2)"/><path id="_Tracé_transparent_2" data-name="&lt;Tracé transparent&gt;" d="M131.22,64.3V74.42h12.31v8.1H131.22v30.37H122.8V56.2H144v8.1Z" transform="translate(-55.3 -56.2)"/><path id="_Tracé_transparent_3" data-name="&lt;Tracé transparent&gt;" d="M167.54,106.82H157l-.89,6.07h-9.32l9.88-56.69h11.18l9.88,56.69h-9.31Zm-1.21-8.1-3.24-22.27-.81-8.1-.81,8.1-3.24,22.27Z" transform="translate(-55.3 -56.2)"/><path id="_Tracé_transparent_4" data-name="&lt;Tracé transparent&gt;" d="M189.65,97.61l-11.26-24.3h9.4l4.7,10.12,1.37,4,1.38-4,4.7-10.12h9.39l-11.26,24.3v15.28h-8.42Zm8.42-32.4h-8.42v-9h8.42Z" transform="translate(-55.3 -56.2)"/><path id="_Tracé_transparent_5" data-name="&lt;Tracé transparent&gt;" d="M282.78,80.5H272.66V72.4h28.67v8.1H291.2v32.39h-8.42Zm8.42-16.2h-8.42V56.2h8.42Z" transform="translate(-55.3 -56.2)"/><path id="_Tracé_transparent_6" data-name="&lt;Tracé transparent&gt;" d="M329.27,104.8v8.09H307.89V56.2H329.1v8.1H316.31V74.42h10.28v8.1H316.31V104.8Z" transform="translate(-55.3 -56.2)"/><path id="_Tracé_transparent_7" data-name="&lt;Tracé transparent&gt;" d="M76,179.72H65.51l-.9,6.08H55.3l9.88-56.69H76.36l9.88,56.69H76.92Zm-1.21-8.1-3.24-22.27-.81-8.1-.81,8.1-3.24,22.27Z" transform="translate(-55.3 -56.2)"/><path id="_Tracé_transparent_8" data-name="&lt;Tracé transparent&gt;" d="M120.57,129.11V185.8h-8.42l-8.75-24.3-2.83-8.1v32.4H92.15V129.11h8.42l8.75,24.29,2.83,8.1V129.11Z" transform="translate(-55.3 -56.2)"/><path id="_Tracé_transparent_9" data-name="&lt;Tracé transparent&gt;" d="M137.34,145.3H127.21v-8.1h28.67v8.1H145.76v40.5h-8.42Z" transform="translate(-55.3 -56.2)"/><polygon id="_Tracé_" data-name="&lt;Tracé&gt;" points="107.22 72.9 107.22 83.45 107.22 91.13 107.22 129.59 115.64 129.59 115.64 91.13 115.64 83.45 115.64 72.9 107.22 72.9"/><path id="_Tracé_transparent_10" data-name="&lt;Tracé transparent&gt;" d="M198,145.3v-2.43c0-4.13-2.43-6.47-5.5-6.47s-5.51,2.34-5.51,6.47V172c0,4.13,2.43,6.48,5.51,6.48s5.5-2.35,5.5-6.48V169.6h8.43v1.78c0,9.15-5.67,15.23-13.93,15.23s-13.93-6.08-13.93-15.23V143.52c0-9.15,5.66-15.22,13.93-15.22s13.93,6.07,13.93,15.22v1.78Z" transform="translate(-55.3 -56.2)"/><path id="_Tracé_transparent_11" data-name="&lt;Tracé transparent&gt;" d="M213.48,129.11h8.42V145.3h-8.42Zm8.42,56.69h-8.42V153.4h8.42Z" transform="translate(-55.3 -56.2)"/><path id="_Tracé_transparent_12" data-name="&lt;Tracé transparent&gt;" d="M258.83,143.52v6.8c0,9.16-6.16,15.23-13,15.23a9.5,9.5,0,0,1-7.45-3.08V185.8H230V143.52c0-9.15,6.15-15.22,14.41-15.22S258.83,134.37,258.83,143.52Zm-8.43-.65c0-4.13-2.75-6.47-6-6.47s-6,2.34-6,6.47V151c0,4.13,2.75,6.48,6,6.48s6-2.35,6-6.48Z" transform="translate(-55.3 -56.2)"/><path id="_Tracé_transparent_13" data-name="&lt;Tracé transparent&gt;" d="M320,137.2H309.85v48.6h-8.42V137.2H291.31v-8.09H320Z" transform="translate(-55.3 -56.2)"/><path id="_Tracé_transparent_14" data-name="&lt;Tracé transparent&gt;" d="M371.94,143.52v27.86c0,9.15-6.16,15.23-14.42,15.23s-14.41-6.08-14.41-15.23V143.52c0-9.15,6.15-15.22,14.41-15.22S371.94,134.37,371.94,143.52Zm-14.42-7.12c-3.24,0-6,2.34-6,6.47V172c0,4.13,2.75,6.48,6,6.48s6-2.35,6-6.48V142.87C363.51,138.74,360.76,136.4,357.52,136.4Z" transform="translate(-55.3 -56.2)"/><path id="_Tracé_transparent_15" data-name="&lt;Tracé transparent&gt;" d="M408.06,129.11V185.8h-8.43l-8.74-24.3-2.84-8.1v32.4h-8.42V129.11h8.42l8.75,24.29,2.83,8.1V129.11Z" transform="translate(-55.3 -56.2)"/><path id="_Tracé_transparent_16" data-name="&lt;Tracé transparent&gt;" d="M415,177.7h8.42v8.1H415Zm17.41,2.59-10.61-10.77c-3.24-3.32-6-7.05-6-12.64,0-7.69,5.43-13.6,13.61-13.6,8.74,0,13.6,6.07,13.6,13v2h-8.42v-1.38c0-3.32-2.11-5.5-5.18-5.5a4.89,4.89,0,0,0-5.19,5c0,2.1,1.14,4.13,3.4,6.48L438.51,174c3.24,3.24,5.18,6.56,5.34,11.83h-8.5A9.51,9.51,0,0,0,432.43,180.29Zm-3-45.11c-5.51,0-9.72-2.27-12.15-6.07h24A14.09,14.09,0,0,1,429.44,135.18Z" transform="translate(-55.3 -56.2)"/><path id="_Tracé_transparent_17" data-name="&lt;Tracé transparent&gt;" d="M281.18,179.72H270.65l-.89,6.08h-9.31l9.88-56.69h11.18l9.88,56.69h-9.32Zm-1.21-8.1-3.24-22.27-.81-8.1-.81,8.1-3.24,22.27Z" transform="translate(-55.3 -56.2)"/><polygon id="_Tracé_2" data-name="&lt;Tracé&gt;" points="271.69 72.9 271.69 83.45 271.69 91.13 271.69 129.59 280.11 129.59 280.11 91.13 280.11 83.45 280.11 72.9 271.69 72.9"/><path id="_Tracé_transparent_18" data-name="&lt;Tracé transparent&gt;" d="M235.89,104.8v8.09H214.51V56.2h21.22v8.1h-12.8V74.42h10.29v8.1H222.93V104.8Z" transform="translate(-55.3 -56.2)"/><path id="_Tracé_transparent_19" data-name="&lt;Tracé transparent&gt;" d="M92.94,84.55H83.63L88.57,56.2h8.58l-2.1,14.18h8.1L101,56.2h8.59l4.94,28.35h-9.32l-.89-6.08H93.83Zm12.47,8.1,3.49,20.24h-8.43l-.56-4-.81-8.09-.81,8.09-.57,4H89.3l3.48-20.24Z" transform="translate(-55.3 -56.2)"/><path id="_Tracé_transparent_20" data-name="&lt;Tracé transparent&gt;" d="M270.39,64.3H260.27v48.59h-8.42V64.3H241.72V56.2h28.67Z" transform="translate(-55.3 -56.2)"/></g><g id="_Groupe_2" data-name="&lt;Groupe&gt;"><path id="_Tracé_transparent_21" data-name="&lt;Tracé transparent&gt;" d="M56.75,210.15h7v1.45h-5.5v3.6h4.47v1.45H58.26v5.57H56.75Z" transform="translate(-55.3 -56.2)"/><path id="_Tracé_transparent_22" data-name="&lt;Tracé transparent&gt;" d="M64.7,217.88a4.71,4.71,0,0,1,1.13-3.16,3.86,3.86,0,0,1,3-1.33,3.76,3.76,0,0,1,3,1.33,4.9,4.9,0,0,1,0,6.33,3.74,3.74,0,0,1-3,1.31,3.85,3.85,0,0,1-3-1.31A4.75,4.75,0,0,1,64.7,217.88Zm1.48,0a3.67,3.67,0,0,0,.71,2.24,2.35,2.35,0,0,0,2,.93,2.3,2.3,0,0,0,2-.93,3.56,3.56,0,0,0,.73-2.24,3.48,3.48,0,0,0-.73-2.23,2.26,2.26,0,0,0-2-.94,2.31,2.31,0,0,0-2,.94A3.58,3.58,0,0,0,66.18,217.88Z" transform="translate(-55.3 -56.2)"/><path id="_Tracé_transparent_23" data-name="&lt;Tracé transparent&gt;" d="M82.32,222.22H80.87v-5.74c0-1.19-.5-1.77-1.5-1.77a2.16,2.16,0,0,0-1.76,1.06,5,5,0,0,0-.72,2.81v3.64H75.44v-8.69h1.45v1.61a3.14,3.14,0,0,1,2.88-1.75,2.42,2.42,0,0,1,2.55,2.71Z" transform="translate(-55.3 -56.2)"/><path id="_Tracé_transparent_24" data-name="&lt;Tracé transparent&gt;" d="M89.92,213.77a2.33,2.33,0,0,1,1,.8V210h1.45v12.2H90.92v-1.07a3.19,3.19,0,0,1-2.53,1.21c-2.48,0-3.86-1.79-3.86-4.48s1.38-4.49,3.86-4.49A3.39,3.39,0,0,1,89.92,213.77ZM91,217.88c0-1.88-1-3.17-2.51-3.17S86,216,86,217.88s1,3.17,2.52,3.17S91,219.75,91,217.88Z" transform="translate(-55.3 -56.2)"/><path id="_Tracé_transparent_25" data-name="&lt;Tracé transparent&gt;" d="M101.46,222.22h-1.14l-.24-1.22a3.12,3.12,0,0,1-2.73,1.36,2.44,2.44,0,0,1-2.68-2.64c0-1.84,1.5-2.84,3.93-2.84H100v-.38c0-1.19-.64-1.79-1.9-1.79a1.74,1.74,0,0,0-1.81,1.36l-1.27-.3a2.88,2.88,0,0,1,3.08-2.38,3,3,0,0,1,3.35,3.28Zm-3.88-1.17a2.51,2.51,0,0,0,1.71-.64,2.58,2.58,0,0,0,.72-2v-.2H98.46c-1.47,0-2.31.55-2.31,1.53A1.26,1.26,0,0,0,97.58,221.05Z" transform="translate(-55.3 -56.2)"/><path id="_Tracé_transparent_26" data-name="&lt;Tracé transparent&gt;" d="M103.2,214.84v-1.31h1.5v-2.6l1.45-.91v3.51h2.27v1.31h-2.27v4.78c0,.91.41,1.43,1.15,1.43a1.72,1.72,0,0,0,1-.28l.34,1.26a2.75,2.75,0,0,1-1.41.33c-1.54,0-2.52-1-2.52-2.86v-4.66Z" transform="translate(-55.3 -56.2)"/><path id="_Tracé_transparent_27" data-name="&lt;Tracé transparent&gt;" d="M111.58,210a1.08,1.08,0,0,1,1.09,1.1,1.09,1.09,0,1,1-1.09-1.1Zm-.72,3.51h1.44v8.69h-1.44Z" transform="translate(-55.3 -56.2)"/><path id="_Tracé_transparent_28" data-name="&lt;Tracé transparent&gt;" d="M114.6,217.88a4.67,4.67,0,0,1,1.14-3.16,4.11,4.11,0,0,1,6.05,0,4.93,4.93,0,0,1,0,6.33,4.15,4.15,0,0,1-6.05,0A4.71,4.71,0,0,1,114.6,217.88Zm1.48,0a3.67,3.67,0,0,0,.71,2.24,2.35,2.35,0,0,0,2,.93,2.3,2.3,0,0,0,2-.93,3.56,3.56,0,0,0,.73-2.24,3.48,3.48,0,0,0-.73-2.23,2.26,2.26,0,0,0-2-.94,2.31,2.31,0,0,0-2,.94A3.58,3.58,0,0,0,116.08,217.88Z" transform="translate(-55.3 -56.2)"/><path id="_Tracé_transparent_29" data-name="&lt;Tracé transparent&gt;" d="M132.22,222.22h-1.45v-5.74c0-1.19-.5-1.77-1.5-1.77a2.16,2.16,0,0,0-1.76,1.06,5,5,0,0,0-.72,2.81v3.64h-1.45v-8.69h1.45v1.61a3.14,3.14,0,0,1,2.88-1.75,2.42,2.42,0,0,1,2.55,2.71Z" transform="translate(-55.3 -56.2)"/><path id="_Tracé_transparent_30" data-name="&lt;Tracé transparent&gt;" d="M144.65,213.77a2.33,2.33,0,0,1,1,.8V210h1.45v12.2h-1.45v-1.07a3.19,3.19,0,0,1-2.53,1.21c-2.48,0-3.86-1.79-3.86-4.48s1.38-4.49,3.86-4.49A3.42,3.42,0,0,1,144.65,213.77Zm1.12,4.11c0-1.88-1-3.17-2.51-3.17s-2.52,1.29-2.52,3.17,1,3.17,2.52,3.17S145.77,219.75,145.77,217.88Z" transform="translate(-55.3 -56.2)"/><path id="_Tracé_transparent_31" data-name="&lt;Tracé transparent&gt;" d="M149.55,213.55l1.19-3.53h2.1l-2.19,3.53Z" transform="translate(-55.3 -56.2)"/><path id="_Tracé_transparent_32" data-name="&lt;Tracé transparent&gt;" d="M160.51,218.19h-6.37c.08,1.7.94,2.86,2.44,2.86a2.4,2.4,0,0,0,2.42-1.66l1.27.55a3.66,3.66,0,0,1-3.69,2.42,3.52,3.52,0,0,1-2.91-1.29,5.12,5.12,0,0,1-1-3.19,5,5,0,0,1,1-3.17,3.49,3.49,0,0,1,2.91-1.32,3.58,3.58,0,0,1,2.88,1.21,4.18,4.18,0,0,1,1,2.91Zm-6.29-1.31H159a2.41,2.41,0,0,0-2.42-2.17A2.37,2.37,0,0,0,154.22,216.88Z" transform="translate(-55.3 -56.2)"/><path id="_Tracé_transparent_33" data-name="&lt;Tracé transparent&gt;" d="M169.88,222.22h-1.45v-5.74c0-1.19-.5-1.77-1.5-1.77a2.16,2.16,0,0,0-1.76,1.06,5,5,0,0,0-.72,2.81v3.64H163v-8.69h1.45v1.61a3.14,3.14,0,0,1,2.88-1.75,2.42,2.42,0,0,1,2.55,2.71Z" transform="translate(-55.3 -56.2)"/><path id="_Tracé_transparent_34" data-name="&lt;Tracé transparent&gt;" d="M171.74,214.84v-1.31h1.5v-2.6l1.45-.91v3.51H177v1.31h-2.27v4.78c0,.91.41,1.43,1.15,1.43a1.72,1.72,0,0,0,1-.28l.34,1.26a2.75,2.75,0,0,1-1.41.33c-1.54,0-2.52-1-2.52-2.86v-4.66Z" transform="translate(-55.3 -56.2)"/><path id="_Tracé_transparent_35" data-name="&lt;Tracé transparent&gt;" d="M184.31,215a2.28,2.28,0,0,0-1-.24,2,2,0,0,0-1.7,1.12,5.57,5.57,0,0,0-.73,3.1v3.29h-1.45v-8.69h1.45V215a3.07,3.07,0,0,1,2.55-1.62,2.52,2.52,0,0,1,1.19.26Z" transform="translate(-55.3 -56.2)"/><path id="_Tracé_transparent_36" data-name="&lt;Tracé transparent&gt;" d="M193.4,218.19H187c.08,1.7.95,2.86,2.45,2.86a2.39,2.39,0,0,0,2.41-1.66l1.28.55a3.67,3.67,0,0,1-3.69,2.42,3.53,3.53,0,0,1-2.92-1.29,5.11,5.11,0,0,1-1-3.19,5,5,0,0,1,1-3.17,3.49,3.49,0,0,1,2.92-1.32,3.59,3.59,0,0,1,2.88,1.21,4.23,4.23,0,0,1,1.05,2.91Zm-6.3-1.31h4.78a2.41,2.41,0,0,0-2.41-2.17A2.37,2.37,0,0,0,187.1,216.88Z" transform="translate(-55.3 -56.2)"/><path id="_Tracé_transparent_37" data-name="&lt;Tracé transparent&gt;" d="M198.09,222a2.39,2.39,0,0,1-1-.79v4.55h-1.45V213.53h1.45v1.07a3.19,3.19,0,0,1,2.53-1.21c2.48,0,3.86,1.8,3.86,4.49s-1.38,4.48-3.86,4.48A3.3,3.3,0,0,1,198.09,222Zm-1.12-4.1c0,1.87.95,3.17,2.51,3.17s2.52-1.3,2.52-3.17-1-3.17-2.52-3.17S197,216,197,217.88Z" transform="translate(-55.3 -56.2)"/><path id="_Tracé_transparent_38" data-name="&lt;Tracé transparent&gt;" d="M210.55,215a2.21,2.21,0,0,0-1-.24,2,2,0,0,0-1.71,1.12,5.66,5.66,0,0,0-.72,3.1v3.29h-1.45v-8.69h1.45V215a3.06,3.06,0,0,1,2.55-1.62,2.58,2.58,0,0,1,1.19.26Z" transform="translate(-55.3 -56.2)"/><path id="_Tracé_transparent_39" data-name="&lt;Tracé transparent&gt;" d="M213.35,210a1.07,1.07,0,0,1,1.08,1.1,1.09,1.09,0,0,1-2.17,0A1.08,1.08,0,0,1,213.35,210Zm-.73,3.51h1.45v8.69h-1.45Z" transform="translate(-55.3 -56.2)"/><path id="_Tracé_transparent_40" data-name="&lt;Tracé transparent&gt;" d="M221.9,214.72l-1,.85a2.24,2.24,0,0,0-1.59-.86,1,1,0,0,0-1.05,1.1c0,1.55,4.05,1.24,4,3.79a2.6,2.6,0,0,1-2.87,2.76,3.4,3.4,0,0,1-3.25-2.35l1.23-.67c.46,1.14,1.14,1.71,2,1.71a1.21,1.21,0,0,0,1.39-1.36c0-.57-.64-1-1.41-1.26-1.14-.43-2.59-1-2.59-2.64a2.37,2.37,0,0,1,2.55-2.4A3,3,0,0,1,221.9,214.72Z" transform="translate(-55.3 -56.2)"/><path id="_Tracé_transparent_41" data-name="&lt;Tracé transparent&gt;" d="M232,218.19h-6.37c.08,1.7.94,2.86,2.44,2.86a2.4,2.4,0,0,0,2.42-1.66l1.27.55a3.66,3.66,0,0,1-3.69,2.42,3.51,3.51,0,0,1-2.91-1.29,5.12,5.12,0,0,1-1-3.19,5,5,0,0,1,1-3.17,3.47,3.47,0,0,1,2.91-1.32A3.58,3.58,0,0,1,231,214.6a4.18,4.18,0,0,1,1.05,2.91Zm-6.29-1.31h4.78a2.41,2.41,0,0,0-2.42-2.17A2.37,2.37,0,0,0,225.71,216.88Z" transform="translate(-55.3 -56.2)"/><path id="_Tracé_transparent_42" data-name="&lt;Tracé transparent&gt;" d="M244.61,217.58v-1.44h4v6.08h-1.29l-.16-1.65a3.8,3.8,0,0,1-3.39,1.79,5.17,5.17,0,0,1-3.81-1.6,7.42,7.42,0,0,1,0-9.14,5.22,5.22,0,0,1,3.86-1.6,4.57,4.57,0,0,1,4.74,3.65l-1.46.43a3.29,3.29,0,0,0-3.28-2.64,3.61,3.61,0,0,0-2.81,1.23,6.31,6.31,0,0,0,0,7,3.61,3.61,0,0,0,2.81,1.22,3.21,3.21,0,0,0,3.33-3.33Z" transform="translate(-55.3 -56.2)"/><path id="_Tracé_transparent_43" data-name="&lt;Tracé transparent&gt;" d="M257.56,222.22h-1.14l-.24-1.22a3.12,3.12,0,0,1-2.73,1.36,2.44,2.44,0,0,1-2.68-2.64c0-1.84,1.5-2.84,3.93-2.84h1.41v-.38c0-1.19-.64-1.79-1.9-1.79a1.74,1.74,0,0,0-1.81,1.36l-1.27-.3a2.88,2.88,0,0,1,3.08-2.38,3,3,0,0,1,3.35,3.28Zm-3.88-1.17a2.51,2.51,0,0,0,1.71-.64,2.58,2.58,0,0,0,.72-2v-.2h-1.55c-1.47,0-2.31.55-2.31,1.53A1.26,1.26,0,0,0,253.68,221.05Z" transform="translate(-55.3 -56.2)"/><path id="_Tracé_transparent_44" data-name="&lt;Tracé transparent&gt;" d="M260.18,210h1.45v12.2h-1.45Z" transform="translate(-55.3 -56.2)"/><path id="_Tracé_transparent_45" data-name="&lt;Tracé transparent&gt;" d="M271.71,218.19h-6.37c.08,1.7.94,2.86,2.44,2.86a2.4,2.4,0,0,0,2.42-1.66l1.27.55a3.66,3.66,0,0,1-3.69,2.42,3.52,3.52,0,0,1-2.91-1.29,5.12,5.12,0,0,1-1-3.19,5,5,0,0,1,1-3.17,3.49,3.49,0,0,1,2.91-1.32,3.58,3.58,0,0,1,2.88,1.21,4.18,4.18,0,0,1,1,2.91Zm-6.29-1.31h4.78a2.41,2.41,0,0,0-2.42-2.17A2.37,2.37,0,0,0,265.42,216.88Z" transform="translate(-55.3 -56.2)"/><path id="_Tracé_transparent_46" data-name="&lt;Tracé transparent&gt;" d="M278.82,215a2.28,2.28,0,0,0-1-.24,2.06,2.06,0,0,0-1.71,1.12,5.66,5.66,0,0,0-.72,3.1v3.29h-1.45v-8.69h1.45V215a3.07,3.07,0,0,1,2.55-1.62,2.55,2.55,0,0,1,1.19.26Z" transform="translate(-55.3 -56.2)"/><path id="_Tracé_transparent_47" data-name="&lt;Tracé transparent&gt;" d="M281.61,210a1.08,1.08,0,0,1,1.09,1.1,1.09,1.09,0,1,1-1.09-1.1Zm-.72,3.51h1.45v8.69h-1.45Z" transform="translate(-55.3 -56.2)"/><path id="_Tracé_transparent_48" data-name="&lt;Tracé transparent&gt;" d="M292.49,218.19h-6.38c.09,1.7.95,2.86,2.45,2.86a2.39,2.39,0,0,0,2.41-1.66l1.28.55a3.67,3.67,0,0,1-3.69,2.42,3.51,3.51,0,0,1-2.91-1.29,5.12,5.12,0,0,1-1-3.19,5,5,0,0,1,1-3.17,3.47,3.47,0,0,1,2.91-1.32,3.58,3.58,0,0,1,2.88,1.21,4.18,4.18,0,0,1,1.05,2.91Zm-6.29-1.31H291a2.4,2.4,0,0,0-2.41-2.17A2.37,2.37,0,0,0,286.2,216.88Z" transform="translate(-55.3 -56.2)"/><path id="_Tracé_transparent_49" data-name="&lt;Tracé transparent&gt;" d="M299.84,214.72l-1,.85a2.22,2.22,0,0,0-1.58-.86,1,1,0,0,0-1,1.1c0,1.55,4,1.24,4,3.79a2.61,2.61,0,0,1-2.88,2.76,3.38,3.38,0,0,1-3.24-2.35l1.23-.67q.69,1.71,2,1.71a1.22,1.22,0,0,0,1.4-1.36c0-.57-.64-1-1.41-1.26-1.14-.43-2.59-1-2.59-2.64a2.37,2.37,0,0,1,2.55-2.4A3,3,0,0,1,299.84,214.72Z" transform="translate(-55.3 -56.2)"/><path id="_Tracé_transparent_50" data-name="&lt;Tracé transparent&gt;" d="M307.49,210.15H309v10.62h5.48v1.45h-7Z" transform="translate(-55.3 -56.2)"/><path id="_Tracé_transparent_51" data-name="&lt;Tracé transparent&gt;" d="M322.56,222.22h-1.13l-.25-1.22a3.09,3.09,0,0,1-2.72,1.36,2.44,2.44,0,0,1-2.69-2.64c0-1.84,1.5-2.84,3.93-2.84h1.42v-.38c0-1.19-.64-1.79-1.9-1.79a1.74,1.74,0,0,0-1.81,1.36l-1.28-.3a2.89,2.89,0,0,1,3.09-2.38,3,3,0,0,1,3.34,3.28Zm-3.88-1.17a2.47,2.47,0,0,0,1.71-.64,2.58,2.58,0,0,0,.73-2v-.2h-1.56c-1.46,0-2.31.55-2.31,1.53A1.26,1.26,0,0,0,318.68,221.05Z" transform="translate(-55.3 -56.2)"/><path id="_Tracé_transparent_52" data-name="&lt;Tracé transparent&gt;" d="M324.32,214.84v-1.31h1.25V213c0-1.94,1-2.94,2.8-2.94a2.49,2.49,0,0,1,1.25.27l-.3,1.28a2.1,2.1,0,0,0-1-.24c-.95,0-1.35.51-1.35,1.63v.57h2v1.31h-2v7.38h-1.44v-7.38Z" transform="translate(-55.3 -56.2)"/><path id="_Tracé_transparent_53" data-name="&lt;Tracé transparent&gt;" d="M337.36,222.22h-1.14L336,221a3.12,3.12,0,0,1-2.72,1.36,2.44,2.44,0,0,1-2.69-2.64c0-1.84,1.5-2.84,3.93-2.84h1.41v-.38c0-1.19-.64-1.79-1.9-1.79a1.74,1.74,0,0,0-1.81,1.36l-1.27-.3a2.88,2.88,0,0,1,3.08-2.38,3,3,0,0,1,3.35,3.28Zm-3.88-1.17a2.51,2.51,0,0,0,1.71-.64,2.58,2.58,0,0,0,.72-2v-.2h-1.55c-1.47,0-2.31.55-2.31,1.53A1.26,1.26,0,0,0,333.48,221.05Z" transform="translate(-55.3 -56.2)"/><path id="_Tracé_transparent_54" data-name="&lt;Tracé transparent&gt;" d="M344.88,213.53h1.51l-4.31,12.21H340.6l1.38-3.88-3.05-8.33h1.58l2.21,6.28Z" transform="translate(-55.3 -56.2)"/><path id="_Tracé_transparent_55" data-name="&lt;Tracé transparent&gt;" d="M355.39,218.19H349c.08,1.7.94,2.86,2.44,2.86a2.4,2.4,0,0,0,2.42-1.66l1.27.55a3.66,3.66,0,0,1-3.69,2.42,3.51,3.51,0,0,1-2.91-1.29,5.12,5.12,0,0,1-1-3.19,5,5,0,0,1,1-3.17,3.47,3.47,0,0,1,2.91-1.32,3.58,3.58,0,0,1,2.88,1.21,4.18,4.18,0,0,1,1.05,2.91Zm-6.29-1.31h4.78a2.41,2.41,0,0,0-2.42-2.17A2.37,2.37,0,0,0,349.1,216.88Z" transform="translate(-55.3 -56.2)"/><path id="_Tracé_transparent_56" data-name="&lt;Tracé transparent&gt;" d="M356.79,214.84v-1.31h1.5v-2.6l1.45-.91v3.51H362v1.31h-2.28v4.78c0,.91.41,1.43,1.15,1.43a1.72,1.72,0,0,0,1-.28l.34,1.26a2.75,2.75,0,0,1-1.41.33c-1.54,0-2.52-1-2.52-2.86v-4.66Z" transform="translate(-55.3 -56.2)"/><path id="_Tracé_transparent_57" data-name="&lt;Tracé transparent&gt;" d="M363.45,214.84v-1.31H365v-2.6l1.45-.91v3.51h2.27v1.31H366.4v4.78c0,.91.41,1.43,1.15,1.43a1.66,1.66,0,0,0,1-.28l.35,1.26a2.79,2.79,0,0,1-1.42.33c-1.53,0-2.51-1-2.51-2.86v-4.66Z" transform="translate(-55.3 -56.2)"/><path id="_Tracé_transparent_58" data-name="&lt;Tracé transparent&gt;" d="M378.17,218.19h-6.38c.09,1.7.95,2.86,2.45,2.86a2.39,2.39,0,0,0,2.41-1.66l1.28.55a3.67,3.67,0,0,1-3.69,2.42,3.51,3.51,0,0,1-2.91-1.29,5.12,5.12,0,0,1-1-3.19,5,5,0,0,1,1-3.17,3.47,3.47,0,0,1,2.91-1.32,3.59,3.59,0,0,1,2.88,1.21,4.18,4.18,0,0,1,1.05,2.91Zm-6.29-1.31h4.77a2.4,2.4,0,0,0-2.41-2.17A2.37,2.37,0,0,0,371.88,216.88Z" transform="translate(-55.3 -56.2)"/></g></svg>