<?xml version="1.0" standalone="no"?>
<!DOCTYPE svg PUBLIC "-//W3C//DTD SVG 20010904//EN"
 "http://www.w3.org/TR/2001/REC-SVG-20010904/DTD/svg10.dtd">
<svg version="1.0" xmlns="http://www.w3.org/2000/svg"
 width="28.000000pt" height="50.000000pt" viewBox="0 0 28.000000 50.000000"
 preserveAspectRatio="xMidYMid meet">

<g transform="translate(0.000000,50.000000) scale(0.100000,-0.100000)"
fill="none" stroke="#000000">
<path d="M0 378 l0 -123 120 120 c118 117 119 119 140 100 20 -18 20 -18 20 3
0 21 -3 22 -140 22 l-140 0 0 -122z"/>
<path d="M175 350 l-100 -100 103 -103 102 -102 0 203 c0 111 -1 202 -3 202
-1 0 -47 -45 -102 -100z"/>
<path d="M0 122 l0 -122 140 0 c137 0 140 1 140 22 0 21 0 21 -20 3 -21 -19
-22 -17 -140 100 l-120 120 0 -123z"/>
</g>
</svg>
