<?xml version="1.0" encoding="utf-8"?>
<!-- Generator: Adobe Illustrator 22.0.1, SVG Export Plug-In . SVG Version: 6.00 Build 0)  -->
<svg version="1.1"
	 id="svg3183" inkscape:version="0.48.1 " sodipodi:docname="Autolib logo.svg" xmlns:cc="http://creativecommons.org/ns#" xmlns:dc="http://purl.org/dc/elements/1.1/" xmlns:inkscape="http://www.inkscape.org/namespaces/inkscape" xmlns:rdf="http://www.w3.org/1999/02/22-rdf-syntax-ns#" xmlns:sodipodi="http://sodipodi.sourceforge.net/DTD/sodipodi-0.dtd" xmlns:svg="http://www.w3.org/2000/svg"
	 xmlns="http://www.w3.org/2000/svg" xmlns:xlink="http://www.w3.org/1999/xlink" x="0px" y="0px" viewBox="0 0 890.4 422.6"
	 style="enable-background:new 0 0 890.4 422.6;" xml:space="preserve">
<style type="text/css">
	.st0{clip-path:url(#SVGID_2_);}
</style>
<sodipodi:namedview  bordercolor="#666666" borderopacity="1.0" fit-margin-bottom="0" fit-margin-left="0" fit-margin-right="0" fit-margin-top="0" id="namedview3187" inkscape:current-layer="layer1" inkscape:cx="691.59253" inkscape:cy="215.41468" inkscape:document-units="mm" inkscape:pageopacity="0.0" inkscape:pageshadow="2" inkscape:window-height="716" inkscape:window-maximized="1" inkscape:window-width="1366" inkscape:window-x="-8" inkscape:window-y="-8" inkscape:zoom="0.87679638" pagecolor="#ffffff" showgrid="false" units="cm">
	</sodipodi:namedview>
<g id="layer1" transform="translate(-63.887995,-156.91308)" inkscape:groupmode="layer" inkscape:label="Layer 1">
	<g id="g3073" transform="matrix(3.5174135,0,0,-3.5174135,-460.20732,1743.1195)">
		<g>
			<defs>
				<rect id="SVGID_1_" x="-744.5" y="179" width="2496.8" height="423.5"/>
			</defs>
			<clipPath id="SVGID_2_">
				<use xlink:href="#SVGID_1_"  style="overflow:visible;"/>
			</clipPath>
			<g id="g3075" class="st0">
				<g id="g3081" transform="translate(168.6822,361.7136)">
					<path id="path3083" inkscape:connector-curvature="0" d="M0,0c-5.4,0-9.8-4.7-9.8-11c0-6.1,4.4-10.8,9.8-10.8
						c5.4,0,9.8,4.8,9.8,10.8C9.8-4.9,5.4,0,0,0 M19.6-30h-9.3v4c-2.9-3.2-7.1-4.8-11.7-4.8c-10.1,0-18.3,8.9-18.3,19.9
						C-19.7,0.1-11.6,9.2,0,9.2c11.5,0,19.6-9.1,19.6-20.1V-30z"/>
				</g>
				<g id="g3085" transform="translate(212.518,330.8142)">
					<path id="path3087" inkscape:connector-curvature="0" d="M0,0c-10.7,0-17,7.1-17,17.1v22.1h9.8V16.8c0-2.2,0.7-7.3,7.2-7.3
						c4.3,0,7.4,3,7.4,7.3v22.4h9.8V17.1C17.2,7.4,10.4,0,0,0"/>
				</g>
				<g id="g3089" transform="translate(255.0138,331.7802)">
					<path id="path3091" inkscape:connector-curvature="0" d="M0,0c-11.2-1.2-17.2,5.6-17.2,16v31.9h9.8v-9.7h6.9v-8.7h-6.9V16
						c0-5.3,2.5-7.4,7.4-7.1V0z"/>
				</g>
				<g id="g3093" transform="translate(287.7053,350.7233)">
					<path id="path3095" inkscape:connector-curvature="0" d="M0,0c0,6.6-4.2,11.2-9.4,11.2S-18.9,6.6-18.9,0
						c0-6.5,4.2-10.9,9.4-10.9S0-6.5,0,0 M9.9,0.1c0-11.4-8.7-20-19.3-20c-10.6,0-19.2,8.5-19.2,20c0,11.4,8.6,20.1,19.2,20.1
						C1.2,20.2,9.9,11.5,9.9,0.1"/>
				</g>
				<g id="g3097" transform="translate(303.6754,386.9715)">
					<path id="path3099" inkscape:connector-curvature="0" d="M0,0h9.9v-39.2c0-5.4,2.5-7.4,7.3-7.1v-8.9C5.9-56.4,0-49.7,0-39.2V0z
						"/>
				</g>
				<path id="path3101" inkscape:connector-curvature="0" d="M336.1,331.7h-9.8V370h9.8V331.7z"/>
				<g id="g3103" transform="translate(363.9946,361.7136)">
					<path id="path3105" inkscape:connector-curvature="0" d="M0,0c-5.4,0-9.8-4.9-9.8-11c0-5.9,4.4-10.8,9.8-10.8
						c5.4,0,9.8,4.7,9.8,10.8C9.8-4.7,5.4,0,0,0 M0-30.9c-11.6,0-19.7,8.9-19.7,20v36.2h9.9V4.6c2.9,3,6.7,4.5,11.1,4.5
						c10.1,0,18.3-9,18.3-20C19.6-22,11.5-30.9,0-30.9"/>
				</g>
				<g id="g3107" transform="translate(330.9596,417.4251)">
					<path id="path3109" inkscape:connector-curvature="0" d="M0,0c-8.5,0-15.8-1.4-20.5-2.6c-2.5,4-6.8,9.9-13.5,15.9
						c-11.4,10.2-30.2,20.3-57.6,20.3c-18.1,0-32.7-3.6-44.4-9.1c-17.5-8.3-28.1-20.8-34.3-31.2c-4.5-7.7-6.7-14.2-7.5-17.2h13.4
						c1.7,4.8,5.4,12.8,12.1,20.5c5.3,6.1,12.4,12.1,22.2,16.7c9.8,4.5,22.3,7.7,38.4,7.7c24.3,0,39.5-8.6,49.1-17
						c4.8-4.2,8.1-8.5,10.2-11.6c1-1.6,1.8-2.8,2.2-3.7c0.2-0.4,0.4-0.7,0.5-0.9c0-0.1,0.1-0.2,0.1-0.2l2.4-5.5l5.7,2
						c0.4,0.1,10,3.4,21.4,3.4c7.6,0,15.8-1.4,23-5.5v14.1C15.2-1,7.1,0,0,0"/>
				</g>
				<g id="g3111" transform="translate(324.973,380.2728)">
					<path id="path3113" inkscape:connector-curvature="0" d="M0,0c0,3.4,2.8,6.2,6.2,6.2s6.2-2.8,6.2-6.2S9.6-6.2,6.2-6.2
						S0-3.4,0,0"/>
				</g>
				<g id="g3115" transform="translate(387.8265,364.1322)">
					<path id="path3117" inkscape:connector-curvature="0" d="M0,0c2.4,2.1,4.1,6.6,3.7,10.5c-2.8,1.1-4.1,2.9-4.1,5.9
						c0,3.7,2.8,6.4,6.7,6.4c4.8,0,8.1-3.8,8.1-9.3C14.3,5.4,8-1.7,0-2.5V0z"/>
				</g>
				<g id="g3119" transform="translate(443.628,341.0732)">
				</g>
				<g id="g3123" transform="translate(470.848,332.5825)">
				</g>
				<g id="g3127" transform="translate(508.1783,345.5452)">
				</g>
				<g id="g3131" transform="translate(533.6484,331.675)">
				</g>
				<g id="g3135" transform="translate(562.8784,351.5078)">
				</g>
				<g id="g3139" transform="translate(593.2744,351.5078)">
				</g>
				<g id="g3143" transform="translate(638.2521,341.0732)">
				</g>
				<g id="g3147" transform="translate(665.4722,332.5825)">
				</g>
				<g id="g3151" transform="translate(713.0304,347.9703)">
				</g>
				<g id="g3155" transform="translate(725.7947,350.0453)">
				</g>
				<g id="g3159" transform="translate(761.218,350.9254)">
				</g>
				<g id="g3163" transform="translate(802.6276,341.1419)">
				</g>
				<g id="g3167" transform="translate(825.81,365.3259)">
				</g>
				<g id="g3171" transform="translate(840.7213,333.8114)">
				</g>
			</g>
		</g>
	</g>
</g>
</svg>
