<svg xmlns="http://www.w3.org/2000/svg" xmlns:xlink="http://www.w3.org/1999/xlink" preserveAspectRatio="xMidYMid" width="18" height="20" viewBox="0 0 18 20">
  <defs>
    <style>
      .cls-1 {
        fill: #1a1a1a;
        fill-rule: evenodd;
      }
    </style>
  </defs>
  <path d="M1.993,19.997 L3.987,19.997 L3.987,18.007 L14.009,18.007 L14.009,19.997 L16.003,19.997 L16.003,18.007 L17.998,18.007 L17.998,2.999 C17.998,1.344 16.652,0.002 14.994,0.002 L3.002,0.002 C1.344,0.002 -0.002,1.344 -0.002,2.999 L-0.002,17.983 L1.993,17.983 L1.993,19.997 ZM15.018,15.993 C14.465,15.993 14.009,15.538 14.009,14.986 C14.009,14.435 14.465,13.979 15.018,13.979 C15.571,13.979 16.027,14.435 16.027,14.986 C16.027,15.538 15.571,15.993 15.018,15.993 ZM4.997,2.016 L12.999,2.016 L12.999,4.006 L4.997,4.006 L4.997,2.016 ZM1.993,5.996 L16.003,5.996 L16.003,11.989 L1.993,11.989 L1.993,5.996 ZM3.002,14.003 C3.555,14.003 4.012,14.458 4.012,15.010 C4.012,15.561 3.555,16.017 3.002,16.017 C2.450,16.017 1.993,15.561 1.993,15.010 C1.993,14.435 2.450,14.003 3.002,14.003 Z" class="cls-1"/>
</svg>
