<svg xmlns="http://www.w3.org/2000/svg" xmlns:xlink="http://www.w3.org/1999/xlink" preserveAspectRatio="xMidYMid" width="30" height="30" viewBox="0 0 30 30">
  <defs>
    <style>
      .cls-1 {
        fill: #1a1a1a;
        fill-rule: evenodd;
      }
    </style>
  </defs>
  <path d="M29.910,21.184 C29.837,22.781 29.583,23.871 29.212,24.825 C28.829,25.812 28.316,26.648 27.482,27.482 C26.648,28.316 25.812,28.829 24.826,29.212 C23.871,29.583 22.781,29.837 21.184,29.910 C19.585,29.983 19.074,30.000 15.000,30.000 C10.926,30.000 10.415,29.983 8.815,29.910 C7.219,29.837 6.128,29.583 5.174,29.212 C4.188,28.829 3.351,28.316 2.518,27.482 C1.684,26.648 1.171,25.812 0.787,24.825 C0.417,23.871 0.163,22.781 0.090,21.184 C0.017,19.584 -0.000,19.074 -0.000,15.000 C-0.000,10.926 0.017,10.415 0.090,8.815 C0.163,7.219 0.417,6.128 0.787,5.174 C1.171,4.188 1.684,3.351 2.518,2.517 C3.351,1.684 4.188,1.171 5.174,0.787 C6.128,0.417 7.219,0.163 8.815,0.090 C10.415,0.017 10.926,-0.000 15.000,-0.000 C19.074,-0.000 19.585,0.017 21.184,0.090 C22.781,0.163 23.871,0.417 24.826,0.787 C25.812,1.171 26.648,1.684 27.482,2.517 C28.316,3.351 28.829,4.188 29.212,5.174 C29.583,6.128 29.837,7.219 29.910,8.815 C29.983,10.415 30.000,10.926 30.000,15.000 C30.000,19.074 29.983,19.584 29.910,21.184 ZM27.210,8.939 C27.143,7.476 26.899,6.682 26.693,6.153 C26.421,5.453 26.096,4.953 25.571,4.428 C25.046,3.904 24.547,3.579 23.847,3.306 C23.318,3.101 22.524,2.857 21.061,2.790 C19.479,2.718 19.005,2.702 15.000,2.702 C10.995,2.702 10.520,2.718 8.939,2.790 C7.476,2.857 6.682,3.101 6.153,3.306 C5.453,3.579 4.953,3.904 4.429,4.428 C3.904,4.953 3.579,5.453 3.307,6.153 C3.101,6.682 2.857,7.476 2.790,8.939 C2.718,10.520 2.703,10.995 2.703,15.000 C2.703,19.005 2.718,19.479 2.790,21.061 C2.857,22.524 3.101,23.318 3.307,23.846 C3.579,24.547 3.904,25.046 4.429,25.571 C4.953,26.096 5.453,26.421 6.153,26.693 C6.682,26.899 7.476,27.143 8.939,27.210 C10.520,27.282 10.994,27.297 15.000,27.297 C19.005,27.297 19.480,27.282 21.061,27.210 C22.524,27.143 23.318,26.899 23.847,26.693 C24.547,26.421 25.046,26.096 25.571,25.571 C26.096,25.046 26.421,24.547 26.693,23.846 C26.899,23.318 27.143,22.524 27.210,21.061 C27.282,19.479 27.297,19.005 27.297,15.000 C27.297,10.995 27.282,10.520 27.210,8.939 ZM23.007,8.793 C22.013,8.793 21.207,7.987 21.207,6.993 C21.207,5.999 22.013,5.193 23.007,5.193 C24.001,5.193 24.807,5.999 24.807,6.993 C24.807,7.987 24.001,8.793 23.007,8.793 ZM15.000,22.702 C10.746,22.702 7.297,19.254 7.297,15.000 C7.297,10.746 10.746,7.297 15.000,7.297 C19.254,7.297 22.703,10.746 22.703,15.000 C22.703,19.254 19.254,22.702 15.000,22.702 ZM15.000,10.000 C12.239,10.000 10.000,12.238 10.000,15.000 C10.000,17.761 12.239,20.000 15.000,20.000 C17.761,20.000 20.000,17.761 20.000,15.000 C20.000,12.238 17.761,10.000 15.000,10.000 Z" class="cls-1"/>
</svg>
