<?xml version="1.0" encoding="utf-8"?>
<!-- Generator: Adobe Illustrator 21.0.2, SVG Export Plug-In . SVG Version: 6.00 Build 0)  -->
<svg version="1.1" id="Capa_1" xmlns="http://www.w3.org/2000/svg" xmlns:xlink="http://www.w3.org/1999/xlink" x="0px" y="0px"
	 viewBox="0 0 24.5 24.4" style="enable-background:new 0 0 24.5 24.4;" xml:space="preserve">
<g>
	<path d="M21.2,20.2c1.9-2.1,3-4.9,3-8S23,6.2,21,4l0,0l0,0c-2.1-2.2-5-3.7-8.3-3.8l0,0h-0.2c-0.1,0-0.1,0-0.2,0s-0.1,0-0.2,0h-0.2
		l0,0C8.5,0.4,5.6,1.8,3.5,4l0,0l0,0c-2,2.1-3.3,5-3.3,8.2c0,3,1.1,5.8,3,8l0,0l0,0c2.1,2.4,5.1,3.9,8.5,4l0,0h0.2
		c0.1,0,0.1,0,0.2,0s0.1,0,0.2,0h0.2l0,0C16,24.1,19,22.6,21.2,20.2L21.2,20.2L21.2,20.2z M1,12.6h5c0,1.8,0.4,3.5,1,5.1
		c-1.2,0.4-2.3,1-3.4,1.7C2.1,17.6,1.1,15.2,1,12.6z M3.9,4.8C4.9,5.5,6,6,7.2,6.4C6.5,8.1,6.1,9.9,6,11.8H1
		C1.1,9.1,2.2,6.7,3.9,4.8z M23.4,11.8h-5c-0.1-1.9-0.4-3.7-1.1-5.4c1.1-0.4,2.2-0.9,3.3-1.6C22.2,6.7,23.3,9.1,23.4,11.8z
		 M11.8,6.4c-1.2,0-2.4-0.2-3.5-0.5c0.8-1.7,2-3.3,3.5-4.6V6.4z M11.8,7.3v4.6h-5C6.9,10,7.3,8.3,7.9,6.7C9.2,7,10.5,7.2,11.8,7.3z
		 M12.6,7.3c1.3,0,2.6-0.2,3.9-0.6c0.7,1.6,1.1,3.4,1.1,5.2h-5V7.3z M12.6,6.4V1.3c1.5,1.3,2.7,2.8,3.5,4.6
		C15,6.2,13.8,6.4,12.6,6.4z M16.9,5.6C16.1,4,15,2.5,13.7,1.2c2.4,0.3,4.6,1.4,6.3,3C19,4.8,18,5.3,16.9,5.6z M7.5,5.6
		c-1.1-0.4-2.1-0.9-3-1.5c1.7-1.6,3.9-2.7,6.3-3C9.4,2.5,8.3,4,7.5,5.6z M6.8,12.6h5v4.2c-1.4,0-2.7,0.2-4,0.6
		C7.2,15.9,6.9,14.3,6.8,12.6z M11.8,17.6v5.5C10.2,21.7,9,20,8.1,18.2C9.3,17.9,10.5,17.7,11.8,17.6z M12.6,23.1v-5.5
		c1.3,0,2.5,0.2,3.7,0.6C15.5,20.1,14.2,21.8,12.6,23.1z M12.6,16.8v-4.2h5c0,1.7-0.4,3.3-1,4.8C15.3,17.1,14,16.8,12.6,16.8z
		 M18.4,12.6h5c-0.1,2.6-1.1,4.9-2.6,6.8c-1.1-0.7-2.2-1.3-3.4-1.7C18,16.1,18.4,14.4,18.4,12.6z M4.2,20c1-0.7,2-1.2,3.1-1.6
		c0.8,1.8,2,3.4,3.4,4.8C8.2,23,5.9,21.8,4.2,20z M13.7,23.3c1.5-1.4,2.6-3,3.4-4.8c1.1,0.4,2.1,0.9,3.1,1.6
		C18.5,21.8,16.2,23,13.7,23.3z"/>
	<path d="M12.3,24.3h-0.6c-3.4-0.1-6.4-1.5-8.6-4.1c-2-2.3-3-5.1-3-8.1c0-3.1,1.2-6,3.3-8.3c2.2-2.3,5.2-3.6,8.5-3.8h0.8
		c3.1,0.1,6.1,1.5,8.4,3.8c2.1,2.3,3.2,5.2,3.2,8.3c0,3.1-1.1,5.9-3,8.1l0,0c-2.3,2.6-5.4,4-8.8,4H12.3z M11.9,0.3
		C8.6,0.5,5.8,1.8,3.6,4.1c-2.1,2.2-3.3,5.1-3.3,8.1c0,2.9,1.1,5.7,3,7.9c2.1,2.4,5.1,3.9,8.4,3.9h0.8c3.3-0.1,6.3-1.5,8.6-4
		c1.9-2.1,3-4.9,3-7.9c0-3-1.1-5.9-3.2-8.1c-2.2-2.3-5.1-3.7-8.2-3.8H11.9z M13.3,23.5l0.3-0.3c1.4-1.3,2.5-2.9,3.4-4.8l0.1-0.1
		l0.1,0c1.2,0.4,2.2,0.9,3.1,1.6l0.1,0.1l-0.1,0.1c-1.8,1.8-4.1,2.9-6.6,3.2L13.3,23.5z M17.2,18.7c-0.8,1.7-1.8,3.1-3,4.4
		c2.2-0.4,4.2-1.4,5.8-3C19.1,19.5,18.2,19.1,17.2,18.7z M11.9,23.4l-0.2-0.2c-1.5-1.3-2.7-3-3.7-4.9l-0.1-0.2l0.2,0
		c1.2-0.3,2.5-0.5,3.7-0.6l0.2,0V23.4z M8.3,18.3c0.9,1.8,2,3.3,3.3,4.5v-5C10.5,17.9,9.4,18,8.3,18.3z M12.5,23.4v-6h0.1
		c1.3,0,2.5,0.2,3.7,0.6l0.2,0.1l-0.1,0.1c-0.8,1.9-2.1,3.6-3.7,5L12.5,23.4z M12.8,17.8v5c1.5-1.2,2.6-2.8,3.3-4.5
		C15,17.9,13.9,17.8,12.8,17.8z M11.1,23.4l-0.4,0c-2.5-0.2-4.8-1.3-6.6-3.2L4,20l0.1-0.1c1-0.7,2-1.2,3.1-1.6l0.1,0l0.1,0.1
		c0.7,1.7,1.9,3.3,3.4,4.8L11.1,23.4z M4.4,20c1.6,1.7,3.7,2.7,5.9,3c-1.3-1.4-2.4-2.9-3.1-4.4C6.2,19,5.3,19.4,4.4,20z M20.8,19.6
		l-0.1-0.1c-1.3-0.8-2.3-1.3-3.4-1.7l-0.1,0l0.1-0.1c0.7-1.8,1-3.4,1-5v-0.1h5.3l0,0.2c-0.1,2.4-1,4.8-2.6,6.9L20.8,19.6z
		 M17.6,17.6c1,0.3,2,0.8,3.2,1.6c1.5-1.9,2.4-4.2,2.5-6.5h-4.7C18.5,14.3,18.2,15.9,17.6,17.6z M3.6,19.6l-0.1-0.1
		c-1.6-1.9-2.5-4.4-2.6-6.9l0-0.2h5.3v0.1c0,1.6,0.3,3.3,1,5l0.1,0.1l-0.1,0c-1,0.3-2.1,0.9-3.4,1.7L3.6,19.6z M1.2,12.7
		c0.1,2.4,1,4.6,2.5,6.5c1.2-0.8,2.2-1.3,3.2-1.6c-0.6-1.7-0.9-3.3-1-4.9H1.2z M7.7,17.6l-0.1-0.1c-0.6-1.4-0.9-3-1-4.8l0-0.2h5.3
		V17h-0.1c-1.4,0-2.7,0.2-4,0.6L7.7,17.6z M7,12.7c0.1,1.7,0.4,3.1,0.9,4.5c1.2-0.4,2.5-0.6,3.8-0.6v-3.9H7z M16.7,17.6l-0.1,0
		c-1.3-0.3-2.6-0.6-4-0.6h-0.1v-4.5h5.3v0.1c0,1.6-0.3,3.2-1,4.9L16.7,17.6z M12.8,16.7c1.3,0,2.6,0.3,3.8,0.6
		c0.6-1.6,0.9-3,0.9-4.5h-4.7V16.7z M17.8,12h-5.3V7.2h0.1c1.3,0,2.6-0.2,3.9-0.6l0.1,0l0.1,0.1c0.7,1.7,1.1,3.5,1.1,5.3V12z
		 M12.8,11.7h4.7c0-1.6-0.4-3.3-1-4.9c-1.2,0.4-2.4,0.6-3.7,0.6V11.7z M11.9,12H6.6l0-0.2c0.1-1.8,0.5-3.5,1.1-5.2l0-0.1l0.1,0
		c1.3,0.3,2.6,0.5,3.9,0.6l0.1,0V12z M7,11.7h4.7V7.4C10.4,7.3,9.2,7.1,8,6.9C7.4,8.5,7.1,10.1,7,11.7z M23.6,12h-5.3l0-0.1
		c-0.1-2.1-0.5-3.8-1.1-5.4l-0.1-0.1l0.1-0.1c1.2-0.4,2.3-1,3.3-1.6l0.1-0.1l0.1,0.1c1.8,2.1,2.7,4.5,2.8,7.1L23.6,12z M18.5,11.7
		h4.7c-0.1-2.4-1-4.7-2.7-6.7c-0.9,0.6-1.9,1.1-3.1,1.5C18.1,8,18.4,9.6,18.5,11.7z M6.1,12H0.8l0-0.2C0.9,9.2,2,6.7,3.8,4.7
		l0.1-0.1L4,4.7c0.9,0.6,2,1.1,3.3,1.6l0.2,0.1L7.3,6.5c-0.7,1.7-1.1,3.5-1.2,5.4L6.1,12z M1.2,11.7h4.7C6,9.8,6.4,8.1,7,6.5
		C5.8,6.1,4.8,5.6,3.9,5C2.2,6.9,1.3,9.2,1.2,11.7z M12.6,6.5h-0.1V1l0.2,0.2c1.6,1.4,2.8,2.9,3.5,4.7L16.3,6l-0.2,0
		C14.9,6.4,13.7,6.5,12.6,6.5z M12.8,1.6v4.6c1,0,2.1-0.2,3.1-0.4C15.2,4.3,14.1,2.9,12.8,1.6z M11.9,6.5h-0.1
		c-1.1,0-2.3-0.2-3.5-0.5L8.1,6l0.1-0.2c0.8-1.8,2-3.4,3.5-4.6L11.9,1V6.5z M8.5,5.8c1.1,0.3,2.1,0.4,3.1,0.4V1.6
		C10.3,2.8,9.3,4.2,8.5,5.8z M7.6,5.8l-0.1,0c-1.1-0.4-2.1-0.9-3-1.5L4.3,4.1L4.4,4c1.8-1.7,4-2.7,6.4-3l0.4-0.1l-0.3,0.3
		C9.5,2.6,8.4,4.1,7.6,5.7L7.6,5.8z M4.7,4.1c0.8,0.5,1.7,1,2.7,1.3c0.7-1.4,1.7-2.8,3-4.1C8.3,1.7,6.3,2.6,4.7,4.1z M16.8,5.8
		l-0.1-0.1c-0.8-1.6-1.9-3.1-3.2-4.4L13.3,1l0.4,0.1c2.3,0.3,4.6,1.4,6.4,3l0.1,0.1l-0.2,0.1c-1.2,0.7-2.2,1.1-3.1,1.4L16.8,5.8z
		 M14.1,1.4c1.2,1.2,2.1,2.6,2.9,4c0.9-0.3,1.7-0.6,2.8-1.2C18.2,2.7,16.2,1.8,14.1,1.4z"/>
</g>
</svg>
