<svg xmlns="http://www.w3.org/2000/svg" xmlns:xlink="http://www.w3.org/1999/xlink" preserveAspectRatio="xMidYMid" width="18" height="16" viewBox="0 0 18 16">
  <defs>
    <style>
      .cls-1 {
        fill: #1a1a1a;
        fill-rule: evenodd;
      }
    </style>
  </defs>
  <path d="M12.714,-0.001 C11.366,-0.001 9.992,0.486 8.988,1.487 C7.958,0.486 6.610,-0.001 5.263,-0.001 C3.915,-0.001 2.568,0.486 1.537,1.487 C-0.523,3.487 -0.523,6.744 1.537,8.745 L8.988,16.002 L16.466,8.745 C17.496,7.744 17.998,6.436 17.998,5.128 C17.998,3.820 17.496,2.512 16.466,1.512 C15.435,0.486 14.088,-0.001 12.714,-0.001 ZM14.960,7.308 L8.988,13.104 L3.017,7.308 C2.436,6.744 2.092,5.949 2.092,5.128 C2.092,4.308 2.409,3.538 3.017,2.948 C3.598,2.384 4.417,2.051 5.263,2.051 C6.109,2.051 6.901,2.359 7.509,2.948 L8.988,4.410 L10.494,2.948 C11.102,2.359 11.895,2.051 12.740,2.051 C13.586,2.051 14.378,2.359 14.986,2.948 C15.568,3.512 15.911,4.308 15.911,5.128 C15.911,5.949 15.568,6.719 14.960,7.308 Z" class="cls-1"/>
</svg>
