<svg xmlns="http://www.w3.org/2000/svg" xmlns:xlink="http://www.w3.org/1999/xlink" preserveAspectRatio="xMidYMid" width="24" height="24" viewBox="0 0 24 24">
  <defs>
    <style>
      .cls-1 {
        fill: #1a1a1a;
        fill-rule: evenodd;
      }
    </style>
  </defs>
  <path d="M12.032,23.999 C5.401,23.999 0.002,18.657 0.002,12.057 C0.002,5.397 5.401,-0.003 12.032,-0.003 C18.422,-0.003 24.003,5.397 24.003,12.057 C24.003,18.686 18.662,23.999 12.032,23.999 ZM12.032,1.587 C6.332,1.587 1.652,6.328 1.652,12.057 C1.652,17.757 6.332,22.406 12.032,22.406 C17.704,22.406 22.353,17.698 22.353,12.057 C22.353,6.357 17.703,1.587 12.032,1.587 ZM16.983,18.298 C16.503,18.298 15.963,17.969 15.963,17.397 L15.963,9.597 L15.933,9.597 L12.963,15.658 C12.753,16.078 12.482,16.319 12.004,16.319 C11.524,16.319 11.253,16.078 11.043,15.658 L8.073,9.597 L8.042,9.597 L8.042,17.397 C8.042,17.968 7.502,18.298 7.022,18.298 C6.483,18.298 6.033,17.969 6.033,17.397 L6.033,6.927 C6.033,6.327 6.362,5.697 7.352,5.697 C8.103,5.697 8.402,6.027 8.733,6.688 L12.003,13.438 L12.032,13.438 L15.274,6.688 C15.603,6.027 15.905,5.697 16.653,5.697 C17.644,5.697 17.973,6.328 17.973,6.927 L17.973,17.397 C17.973,17.968 17.524,18.298 16.983,18.298 Z" class="cls-1"/>
</svg>
