<?xml version="1.0" encoding="utf-8"?>
<!-- Generator: Adobe Illustrator 19.0.0, SVG Export Plug-In . SVG Version: 6.00 Build 0)  -->
<svg version="1.1" id="Calque_1" xmlns="http://www.w3.org/2000/svg" xmlns:xlink="http://www.w3.org/1999/xlink" x="0px" y="0px"
	 viewBox="-243 367.9 108.1 107" style="enable-background:new -243 367.9 108.1 107;" xml:space="preserve">
<g>
	<g>
		<path d="M-189.3,474.3c-14,0-27.3-5.5-37.2-15.4c-9.9-9.9-15.4-23.1-15.4-37.2c0-14,5.5-27.3,15.4-37.2v0
			c20.5-20.5,53.9-20.5,74.4,0c9.9,9.9,15.4,23.1,15.4,37.2c0,14.1-5.5,27.3-15.4,37.2C-162.1,468.8-175.3,474.3-189.3,474.3z
			 M-189.3,375.1c-11.9,0-23.9,4.5-33,13.6v0c-8.8,8.8-13.6,20.5-13.6,33c0,12.4,4.8,24.1,13.6,33c8.8,8.8,20.5,13.6,33,13.6
			c12.4,0,24.1-4.8,33-13.6s13.6-20.5,13.6-33c0-12.4-4.8-24.1-13.6-33C-165.5,379.6-177.4,375.1-189.3,375.1z"/>
	</g>
	<g>
		<rect x="-215.9" y="418.9" transform="matrix(0.708 0.7062 -0.7062 0.708 242.7014 256.7439)" width="53.5" height="6"/>
	</g>
	<g>
		<rect x="-192.3" y="394.9" transform="matrix(0.7062 0.708 -0.708 0.7062 242.928 257.9477)" width="6" height="53.5"/>
	</g>
</g>
</svg>
