<?xml version="1.0" encoding="utf-8"?>
<!-- Generator: Adobe Illustrator 19.0.0, SVG Export Plug-In . SVG Version: 6.00 Build 0)  -->
<svg version="1.1" id="Calque_1" xmlns="http://www.w3.org/2000/svg" xmlns:xlink="http://www.w3.org/1999/xlink" x="0px" y="0px"
	 viewBox="-243 367.9 108.1 107" style="enable-background:new -243 367.9 108.1 107;" xml:space="preserve">
<g>
	<g>
		<path d="M-189.3,474.3c-14.1,0-27.3-5.5-37.2-15.4c-9.9-9.9-15.4-23.1-15.4-37.2c0-14,5.5-27.3,15.4-37.2v0
			c20.5-20.5,53.9-20.5,74.4,0c20.5,20.5,20.5,53.9,0,74.4C-162,468.8-175.2,474.3-189.3,474.3z M-189.3,375.1
			c-11.9,0-23.9,4.5-33,13.6v0c-8.8,8.8-13.6,20.5-13.6,33c0,12.4,4.8,24.1,13.6,33c8.8,8.8,20.5,13.6,33,13.6s24.1-4.8,33-13.6
			c18.2-18.2,18.2-47.7,0-65.9C-165.4,379.6-177.4,375.1-189.3,375.1z"/>
	</g>
	<g>
		<rect x="-216.1" y="418.7" width="53.5" height="6"/>
	</g>
</g>
</svg>
