<svg xmlns="http://www.w3.org/2000/svg" xmlns:xlink="http://www.w3.org/1999/xlink" preserveAspectRatio="xMidYMid" width="23" height="19" viewBox="0 0 23 19">
  <defs>
    <style>
      .cls-1 {
        fill: #1a1a1a;
        fill-rule: evenodd;
      }
    </style>
  </defs>
  <path d="M7.233,19.000 C15.913,19.000 20.659,11.691 20.659,5.352 C20.659,5.145 20.655,4.938 20.646,4.732 C21.568,4.055 22.368,3.211 23.000,2.249 C22.154,2.631 21.245,2.888 20.290,3.004 C21.264,2.410 22.012,1.471 22.365,0.351 C21.453,0.900 20.444,1.300 19.369,1.515 C18.508,0.583 17.282,-0.000 15.924,-0.000 C13.318,-0.000 11.205,2.148 11.205,4.796 C11.205,5.172 11.247,5.538 11.328,5.889 C7.406,5.689 3.928,3.780 1.601,0.878 C1.195,1.587 0.962,2.410 0.962,3.289 C0.962,4.953 1.795,6.422 3.061,7.281 C2.287,7.257 1.560,7.041 0.924,6.681 C0.924,6.701 0.924,6.721 0.924,6.743 C0.924,9.066 2.550,11.005 4.709,11.444 C4.313,11.554 3.896,11.613 3.465,11.613 C3.162,11.613 2.866,11.583 2.578,11.527 C3.179,13.433 4.921,14.819 6.986,14.858 C5.371,16.145 3.337,16.911 1.126,16.911 C0.745,16.911 0.369,16.889 -0.000,16.845 C2.088,18.206 4.568,19.000 7.233,19.000 " class="cls-1"/>
</svg>
